<svg version="1.1" id="Layer_1" xmlns="http://www.w3.org/2000/svg" xmlns:xlink="http://www.w3.org/1999/xlink" x="0px" y="0px"
	 width="100%" viewBox="0 0 870 847" enable-background="new 0 0 870 847" xml:space="preserve">
<path fill="#000000" opacity="1.000000" stroke="none" 
	d="
M472.000000,848.000000 
	C314.666718,848.000000 157.833420,848.000000 1.000105,848.000000 
	C1.000070,565.666809 1.000070,283.333588 1.000035,1.000295 
	C290.999786,1.000196 580.999573,1.000196 870.999512,1.000098 
	C870.999634,283.333038 870.999634,565.666077 870.999817,847.999512 
	C738.166687,848.000000 605.333313,848.000000 472.000000,848.000000 
M285.533936,659.022888 
	C293.749603,664.021606 301.769623,669.385986 310.236298,673.915588 
	C318.601715,678.391113 327.305084,682.294800 336.068970,685.948669 
	C344.894958,689.628418 353.816620,693.258850 362.992706,695.869080 
	C372.555023,698.589233 382.611572,699.557617 392.198975,702.207458 
	C405.584442,705.907043 419.279083,706.240967 432.916504,706.850708 
	C442.799988,707.292786 452.774109,706.691162 462.657043,705.911377 
	C474.665802,704.963806 486.615936,703.289734 498.601135,702.021729 
	C512.936462,700.505005 526.710205,696.403992 539.977234,691.258423 
	C554.656067,685.565186 569.328552,679.276245 582.833496,671.272034 
	C602.797546,659.439575 621.746643,645.869568 638.203857,629.252075 
	C654.496460,612.800781 670.877869,596.357666 682.403381,575.993103 
	C689.910217,562.729065 697.287964,549.355530 703.922424,535.643494 
	C712.079712,518.784241 717.518860,500.941559 720.249146,482.355225 
	C722.232544,468.853729 725.279297,455.373505 725.740417,441.812012 
	C726.644531,415.222748 727.131226,388.482605 719.962219,362.437836 
	C716.435486,349.625488 713.204651,336.646332 708.433960,324.285278 
	C703.427429,311.313019 697.432556,298.596680 690.577271,286.501038 
	C684.499146,275.776764 676.933594,265.842468 669.494873,255.958176 
	C662.757996,247.006500 655.305786,238.593185 647.326355,228.920990 
	C618.300049,313.046936 589.542725,396.393219 560.785400,479.739502 
	C560.269348,479.782410 559.753296,479.825287 559.237183,479.868195 
	C525.947998,398.358093 492.658783,316.848022 459.408905,235.434280 
	C430.261047,317.855957 401.085236,400.356689 371.909424,482.857391 
	C368.333801,475.922211 366.122406,468.962585 363.593536,462.120239 
	C358.492462,448.318329 353.211609,434.582916 348.018372,420.814972 
	C343.102997,407.783569 338.205872,394.745300 333.298615,381.710815 
	C330.250427,373.614349 327.084808,365.559998 324.172455,357.415009 
	C318.517212,341.599121 313.079773,325.705292 307.407959,309.895416 
	C302.332092,295.746796 297.026001,281.680939 291.888672,267.554169 
	C286.753021,253.431961 281.809845,239.238464 276.523804,225.173355 
	C275.408936,222.206924 276.196655,220.156738 278.215210,218.560471 
	C288.663788,210.298004 298.931763,201.755676 309.849548,194.153793 
	C319.140137,187.684875 329.101257,182.133850 339.009094,176.613571 
	C344.937195,173.310669 351.188538,170.456009 357.554504,168.103119 
	C366.246613,164.890533 375.108795,162.068344 384.040192,159.591278 
	C394.219025,156.768250 404.440002,153.728256 414.850800,152.205154 
	C427.465668,150.359589 440.283783,149.569122 453.041473,149.139389 
	C463.271698,148.794785 473.543091,149.665253 483.795654,150.013443 
	C484.447479,150.035583 485.093536,150.209381 485.743591,150.303848 
	C494.235168,151.537537 502.716461,152.850983 511.225250,153.952011 
	C513.739685,154.277374 516.331726,154.002151 518.888245,154.002151 
	C518.929932,153.457748 518.971680,152.913345 519.013367,152.368942 
	C498.372803,145.183426 476.625488,143.109909 455.095337,142.266357 
	C385.875641,139.554260 323.272095,158.754654 268.597931,202.868744 
	C264.086609,195.687637 260.322174,189.034851 255.916412,182.837997 
	C249.395905,173.666656 241.517929,165.786926 231.240814,160.785553 
	C227.963364,159.190567 224.462509,157.718048 220.905441,157.097229 
	C210.138702,155.218079 199.308197,153.682068 188.476318,152.204666 
	C177.381165,150.691360 166.283752,149.065872 155.133804,148.121765 
	C145.342361,147.292694 135.477005,147.333344 125.643982,146.999191 
	C103.220909,146.237198 81.078110,147.943710 59.343040,153.959778 
	C48.299728,157.016479 39.072330,169.105423 40.097393,179.980759 
	C40.678555,186.146530 40.923088,192.388977 42.114159,198.440414 
	C43.467403,205.315826 45.107300,211.791534 51.668430,216.700836 
	C57.368477,220.965851 63.272911,220.774033 69.171371,220.812424 
	C78.135551,220.870804 87.111031,219.707687 96.076073,218.992706 
	C108.159325,218.029037 120.232239,216.932800 132.318710,216.013382 
	C146.402481,214.942047 160.484573,213.744583 174.590240,213.108337 
	C181.803680,212.782959 187.964478,216.127243 193.374557,220.857834 
	C202.590973,228.916687 206.824478,240.100159 211.667068,250.755447 
	C213.232162,254.199188 215.496048,258.291901 212.161652,263.017181 
	C205.785629,272.052765 199.711807,281.405334 194.573990,291.184052 
	C188.472733,302.796478 182.676407,314.704071 178.247330,327.022827 
	C173.655762,339.793488 170.299393,353.089142 167.443146,366.378754 
	C164.891174,378.252686 162.720932,390.390839 162.248077,402.485382 
	C161.588318,419.360535 162.266846,436.324280 163.144791,453.209991 
	C163.683701,463.574799 165.031281,473.995819 167.135666,484.159729 
	C171.075607,503.189056 176.577789,521.872192 185.187500,539.342773 
	C191.847610,552.857178 199.212784,566.084167 207.153015,578.887878 
	C213.043152,588.385803 219.815781,597.475220 227.179199,605.885132 
	C236.162964,616.145630 245.775787,625.944946 255.863174,635.123108 
	C265.055176,643.486572 275.245270,650.753052 285.533936,659.022888 
z"/>
<path fill="#FEFEFE" opacity="1.000000" stroke="none" 
	d="
M285.264679,658.762939 
	C275.245270,650.753052 265.055176,643.486572 255.863174,635.123108 
	C245.775787,625.944946 236.162964,616.145630 227.179199,605.885132 
	C219.815781,597.475220 213.043152,588.385803 207.153015,578.887878 
	C199.212784,566.084167 191.847610,552.857178 185.187500,539.342773 
	C176.577789,521.872192 171.075607,503.189056 167.135666,484.159729 
	C165.031281,473.995819 163.683701,463.574799 163.144791,453.209991 
	C162.266846,436.324280 161.588318,419.360535 162.248077,402.485382 
	C162.720932,390.390839 164.891174,378.252686 167.443146,366.378754 
	C170.299393,353.089142 173.655762,339.793488 178.247330,327.022827 
	C182.676407,314.704071 188.472733,302.796478 194.573990,291.184052 
	C199.711807,281.405334 205.785629,272.052765 212.161652,263.017181 
	C215.496048,258.291901 213.232162,254.199188 211.667068,250.755447 
	C206.824478,240.100159 202.590973,228.916687 193.374557,220.857834 
	C187.964478,216.127243 181.803680,212.782959 174.590240,213.108337 
	C160.484573,213.744583 146.402481,214.942047 132.318710,216.013382 
	C120.232239,216.932800 108.159325,218.029037 96.076073,218.992706 
	C87.111031,219.707687 78.135551,220.870804 69.171371,220.812424 
	C63.272911,220.774033 57.368477,220.965851 51.668430,216.700836 
	C45.107300,211.791534 43.467403,205.315826 42.114159,198.440414 
	C40.923088,192.388977 40.678555,186.146530 40.097393,179.980759 
	C39.072330,169.105423 48.299728,157.016479 59.343040,153.959778 
	C81.078110,147.943710 103.220909,146.237198 125.643982,146.999191 
	C135.477005,147.333344 145.342361,147.292694 155.133804,148.121765 
	C166.283752,149.065872 177.381165,150.691360 188.476318,152.204666 
	C199.308197,153.682068 210.138702,155.218079 220.905441,157.097229 
	C224.462509,157.718048 227.963364,159.190567 231.240814,160.785553 
	C241.517929,165.786926 249.395905,173.666656 255.916412,182.837997 
	C260.322174,189.034851 264.086609,195.687637 268.597931,202.868744 
	C323.272095,158.754654 385.875641,139.554260 455.095337,142.266357 
	C476.625488,143.109909 498.372803,145.183426 519.013367,152.368942 
	C518.971680,152.913345 518.929932,153.457748 518.888245,154.002151 
	C516.331726,154.002151 513.739685,154.277374 511.225250,153.952011 
	C502.716461,152.850983 494.235168,151.537537 485.743591,150.303848 
	C485.093536,150.209381 484.447479,150.035583 483.795654,150.013443 
	C473.543091,149.665253 463.271698,148.794785 453.041473,149.139389 
	C440.283783,149.569122 427.465668,150.359589 414.850800,152.205154 
	C404.440002,153.728256 394.219025,156.768250 384.040192,159.591278 
	C375.108795,162.068344 366.246613,164.890533 357.554504,168.103119 
	C351.188538,170.456009 344.937195,173.310669 339.009094,176.613571 
	C329.101257,182.133850 319.140137,187.684875 309.849548,194.153793 
	C298.931763,201.755676 288.663788,210.298004 278.215210,218.560471 
	C276.196655,220.156738 275.408936,222.206924 276.523804,225.173355 
	C281.809845,239.238464 286.753021,253.431961 291.888672,267.554169 
	C297.026001,281.680939 302.332092,295.746796 307.407959,309.895416 
	C313.079773,325.705292 318.517212,341.599121 324.172455,357.415009 
	C327.084808,365.559998 330.250427,373.614349 333.298615,381.710815 
	C338.205872,394.745300 343.102997,407.783569 348.018372,420.814972 
	C353.211609,434.582916 358.492462,448.318329 363.593536,462.120239 
	C366.122406,468.962585 368.333801,475.922211 371.909424,482.857391 
	C401.085236,400.356689 430.261047,317.855957 459.408905,235.434280 
	C492.658783,316.848022 525.947998,398.358093 559.237183,479.868195 
	C559.753296,479.825287 560.269348,479.782410 560.785400,479.739502 
	C589.542725,396.393219 618.300049,313.046936 647.326355,228.920990 
	C655.305786,238.593185 662.757996,247.006500 669.494873,255.958176 
	C676.933594,265.842468 684.499146,275.776764 690.577271,286.501038 
	C697.432556,298.596680 703.427429,311.313019 708.433960,324.285278 
	C713.204651,336.646332 716.435486,349.625488 719.962219,362.437836 
	C727.131226,388.482605 726.644531,415.222748 725.740417,441.812012 
	C725.279297,455.373505 722.232544,468.853729 720.249146,482.355225 
	C717.518860,500.941559 712.079712,518.784241 703.922424,535.643494 
	C697.287964,549.355530 689.910217,562.729065 682.403381,575.993103 
	C670.877869,596.357666 654.496460,612.800781 638.203857,629.252075 
	C621.746643,645.869568 602.797546,659.439575 582.833496,671.272034 
	C569.328552,679.276245 554.656067,685.565186 539.977234,691.258423 
	C526.710205,696.403992 512.936462,700.505005 498.601135,702.021729 
	C486.615936,703.289734 474.665802,704.963806 462.657043,705.911377 
	C452.774109,706.691162 442.799988,707.292786 432.916504,706.850708 
	C419.279083,706.240967 405.584442,705.907043 392.198975,702.207458 
	C382.611572,699.557617 372.555023,698.589233 362.992706,695.869080 
	C353.816620,693.258850 344.894958,689.628418 336.068970,685.948669 
	C327.305084,682.294800 318.601715,678.391113 310.236298,673.915588 
	C301.769623,669.385986 293.749603,664.021606 285.264679,658.762939 
M605.052551,604.587280 
	C612.971252,595.952820 621.126404,587.521301 628.751953,578.635254 
	C639.578796,566.018677 648.460693,551.897095 655.729553,537.096252 
	C664.341614,519.560486 670.346619,500.973602 674.424133,481.658020 
	C677.438965,467.376251 678.861084,453.044922 679.898193,438.630615 
	C681.072449,422.309814 679.462646,406.037628 676.917175,389.916443 
	C675.334534,379.892975 673.341980,369.899841 670.849182,360.066589 
	C669.202087,353.569489 666.554016,347.291626 663.973755,341.073486 
	C659.903320,331.264313 655.513245,321.587830 650.888000,311.007843 
	C647.011658,321.680206 643.359985,331.038055 640.205688,340.560669 
	C633.261475,361.524933 626.686646,382.611603 619.736145,403.573700 
	C613.994873,420.888763 607.941772,438.100586 602.005920,455.350952 
	C597.364990,468.837891 592.672058,482.306946 588.038757,495.796509 
	C583.356323,509.429169 578.629333,523.047546 574.089661,536.727905 
	C570.412476,547.809021 567.037109,558.989990 563.431152,570.095276 
	C559.674377,581.664917 555.623657,593.142090 552.043396,604.765015 
	C549.716248,612.319824 549.209778,613.002075 541.200989,613.002075 
	C538.879822,613.002075 536.558594,613.002075 534.211792,613.002075 
	C504.347717,532.559204 474.568817,452.345734 444.640320,371.729370 
	C443.859741,372.743500 443.286957,373.198151 443.095856,373.778473 
	C438.701202,387.123291 434.401947,400.499695 429.972107,413.832703 
	C425.490082,427.322571 420.892761,440.774170 416.334015,454.238495 
	C413.563263,462.421906 410.784729,470.602753 407.983093,478.775635 
	C404.353607,489.363556 400.765869,499.966492 397.033234,510.518097 
	C393.450714,520.645142 389.534149,530.656250 386.069153,540.822205 
	C379.151093,561.118896 372.561920,581.528076 365.598785,601.809021 
	C361.724854,613.092285 361.503571,612.820251 350.802063,613.094116 
	C346.157593,613.212830 344.198853,611.340698 342.876038,607.071228 
	C340.048126,597.944092 336.715912,588.970154 333.480927,579.972839 
	C328.991943,567.487854 324.462982,555.016418 319.842987,542.579346 
	C311.089905,519.016113 302.280426,495.473663 293.453339,471.938019 
	C289.014252,460.102203 284.479004,448.302490 279.998199,436.482300 
	C275.118225,423.609161 270.272552,410.722931 265.368683,397.858948 
	C262.970367,391.567719 260.344147,385.360992 258.048248,379.033569 
	C252.920715,364.902252 247.972336,350.706055 242.880325,336.561707 
	C239.303467,326.626068 235.692673,316.700989 231.940079,306.830902 
	C229.407257,300.169006 226.601151,293.611023 223.862244,286.871094 
	C223.203781,287.406097 222.850159,287.563385 222.700317,287.833588 
	C209.628128,311.409729 199.484497,336.213013 194.187073,362.639374 
	C190.156143,382.747772 188.146973,403.214020 188.997177,423.830994 
	C189.364960,432.749329 188.885849,441.788879 190.203064,450.561432 
	C192.156357,463.570221 194.961700,476.491699 198.162781,489.260162 
	C200.884933,500.118256 204.040161,510.962677 208.184158,521.341858 
	C212.092422,531.130615 217.439301,540.357422 222.333817,549.737305 
	C231.409821,567.130615 243.180695,582.623352 256.505554,596.928833 
	C260.995361,601.749146 265.903473,606.247314 271.016907,610.405090 
	C281.600372,619.010437 291.973724,628.007874 303.313934,635.513977 
	C316.602325,644.309692 330.311035,652.670593 345.797455,657.436951 
	C354.505096,660.116943 362.980072,663.653137 371.798218,665.844727 
	C380.083282,667.903870 388.788910,668.239197 397.116272,670.167358 
	C408.666443,672.841858 420.238434,674.360718 432.095276,674.037659 
	C440.088867,673.819824 448.174957,674.700684 456.072693,673.800537 
	C467.775879,672.466675 479.364624,670.076965 490.970947,667.965271 
	C497.446320,666.787170 504.237000,666.180542 510.224518,663.712646 
	C524.954834,657.641113 539.569153,651.156311 553.708496,643.830811 
	C562.816101,639.112183 571.308105,633.017456 579.515015,626.799072 
	C588.335815,620.115540 596.500610,612.566223 605.052551,604.587280 
M321.215454,482.411865 
	C329.003571,505.138763 336.791687,527.865662 345.066132,552.011780 
	C347.723480,544.580261 350.015900,538.602112 351.924988,532.503967 
	C352.363159,531.104370 351.699493,529.218506 351.176514,527.681091 
	C345.638519,511.400238 340.000824,495.153412 334.441345,478.879852 
	C328.018066,460.077759 321.691376,441.242615 315.239044,422.450562 
	C307.941925,401.197937 300.478210,380.002380 293.222900,358.735657 
	C286.066833,337.759857 279.143555,316.704742 272.003632,295.723358 
	C263.903442,271.920227 255.757202,248.132034 247.474823,224.391815 
	C242.145630,209.116486 237.803268,193.336212 227.171875,180.520889 
	C222.223251,174.555679 216.311142,169.354706 208.542847,168.174301 
	C193.261169,165.852249 177.887299,163.911316 162.482071,162.688354 
	C145.499756,161.340195 128.425903,160.965668 111.816315,166.027267 
	C106.078804,167.775681 100.333908,170.497986 99.938889,177.182709 
	C99.544830,183.851089 100.429001,190.684967 101.517273,197.320908 
	C102.308853,202.147659 107.455841,206.171371 112.349281,205.921341 
	C127.390297,205.152847 142.401901,203.822693 157.439850,202.975876 
	C171.172043,202.202606 184.920013,201.548264 198.668884,201.324020 
	C203.170441,201.250610 208.002747,201.927979 212.149826,203.592392 
	C221.655823,207.407639 228.139603,214.891525 231.900497,224.171951 
	C237.121490,237.055267 241.661942,250.222519 246.236801,263.357727 
	C253.748642,284.925598 261.033325,306.572449 268.453094,328.172516 
	C274.521820,345.839478 280.634583,363.491394 286.752869,381.141266 
	C291.242493,394.092834 295.847626,407.004761 300.267548,419.979919 
	C307.261597,440.511780 314.143707,461.081818 321.215454,482.411865 
M522.649780,512.980835 
	C525.281433,520.455750 527.913086,527.930664 530.875549,536.345032 
	C533.230042,530.254395 535.549316,524.987854 537.237305,519.526184 
	C537.908447,517.354675 537.722717,514.573303 536.999756,512.374451 
	C533.487732,501.692505 529.608337,491.132080 525.958496,480.494476 
	C520.648376,465.018127 515.424927,449.511993 510.161560,434.019592 
	C502.449158,411.318848 494.753906,388.612305 487.014008,365.920929 
	C480.935059,348.099121 474.799683,330.296600 468.226410,311.135986 
	C465.956940,317.673523 463.789185,323.018677 462.320984,328.549500 
	C461.648163,331.083984 461.695251,334.206604 462.537140,336.680969 
	C467.537231,351.375916 473.031647,365.902466 478.047638,380.592224 
	C487.023529,406.879181 495.769867,433.244476 504.627319,459.571930 
	C510.534973,477.131470 516.468872,494.682220 522.649780,512.980835 
z"/>
<path fill="#000000" opacity="1.000000" stroke="none" 
	d="
M605.002075,604.990967 
	C596.500610,612.566223 588.335815,620.115540 579.515015,626.799072 
	C571.308105,633.017456 562.816101,639.112183 553.708496,643.830811 
	C539.569153,651.156311 524.954834,657.641113 510.224518,663.712646 
	C504.237000,666.180542 497.446320,666.787170 490.970947,667.965271 
	C479.364624,670.076965 467.775879,672.466675 456.072693,673.800537 
	C448.174957,674.700684 440.088867,673.819824 432.095276,674.037659 
	C420.238434,674.360718 408.666443,672.841858 397.116272,670.167358 
	C388.788910,668.239197 380.083282,667.903870 371.798218,665.844727 
	C362.980072,663.653137 354.505096,660.116943 345.797455,657.436951 
	C330.311035,652.670593 316.602325,644.309692 303.313934,635.513977 
	C291.973724,628.007874 281.600372,619.010437 271.016907,610.405090 
	C265.903473,606.247314 260.995361,601.749146 256.505554,596.928833 
	C243.180695,582.623352 231.409821,567.130615 222.333817,549.737305 
	C217.439301,540.357422 212.092422,531.130615 208.184158,521.341858 
	C204.040161,510.962677 200.884933,500.118256 198.162781,489.260162 
	C194.961700,476.491699 192.156357,463.570221 190.203064,450.561432 
	C188.885849,441.788879 189.364960,432.749329 188.997177,423.830994 
	C188.146973,403.214020 190.156143,382.747772 194.187073,362.639374 
	C199.484497,336.213013 209.628128,311.409729 222.700317,287.833588 
	C222.850159,287.563385 223.203781,287.406097 223.862244,286.871094 
	C226.601151,293.611023 229.407257,300.169006 231.940079,306.830902 
	C235.692673,316.700989 239.303467,326.626068 242.880325,336.561707 
	C247.972336,350.706055 252.920715,364.902252 258.048248,379.033569 
	C260.344147,385.360992 262.970367,391.567719 265.368683,397.858948 
	C270.272552,410.722931 275.118225,423.609161 279.998199,436.482300 
	C284.479004,448.302490 289.014252,460.102203 293.453339,471.938019 
	C302.280426,495.473663 311.089905,519.016113 319.842987,542.579346 
	C324.462982,555.016418 328.991943,567.487854 333.480927,579.972839 
	C336.715912,588.970154 340.048126,597.944092 342.876038,607.071228 
	C344.198853,611.340698 346.157593,613.212830 350.802063,613.094116 
	C361.503571,612.820251 361.724854,613.092285 365.598785,601.809021 
	C372.561920,581.528076 379.151093,561.118896 386.069153,540.822205 
	C389.534149,530.656250 393.450714,520.645142 397.033234,510.518097 
	C400.765869,499.966492 404.353607,489.363556 407.983093,478.775635 
	C410.784729,470.602753 413.563263,462.421906 416.334015,454.238495 
	C420.892761,440.774170 425.490082,427.322571 429.972107,413.832703 
	C434.401947,400.499695 438.701202,387.123291 443.095856,373.778473 
	C443.286957,373.198151 443.859741,372.743500 444.640320,371.729370 
	C474.568817,452.345734 504.347717,532.559204 534.211792,613.002075 
	C536.558594,613.002075 538.879822,613.002075 541.200989,613.002075 
	C549.209778,613.002075 549.716248,612.319824 552.043396,604.765015 
	C555.623657,593.142090 559.674377,581.664917 563.431152,570.095276 
	C567.037109,558.989990 570.412476,547.809021 574.089661,536.727905 
	C578.629333,523.047546 583.356323,509.429169 588.038757,495.796509 
	C592.672058,482.306946 597.364990,468.837891 602.005920,455.350952 
	C607.941772,438.100586 613.994873,420.888763 619.736145,403.573700 
	C626.686646,382.611603 633.261475,361.524933 640.205688,340.560669 
	C643.359985,331.038055 647.011658,321.680206 650.888000,311.007843 
	C655.513245,321.587830 659.903320,331.264313 663.973755,341.073486 
	C666.554016,347.291626 669.202087,353.569489 670.849182,360.066589 
	C673.341980,369.899841 675.334534,379.892975 676.917175,389.916443 
	C679.462646,406.037628 681.072449,422.309814 679.898193,438.630615 
	C678.861084,453.044922 677.438965,467.376251 674.424133,481.658020 
	C670.346619,500.973602 664.341614,519.560486 655.729553,537.096252 
	C648.460693,551.897095 639.578796,566.018677 628.751953,578.635254 
	C621.126404,587.521301 612.971252,595.952820 605.002075,604.990967 
z"/>
<path fill="#070707" opacity="1.000000" stroke="none" 
	d="
M321.144318,482.023773 
	C314.143707,461.081818 307.261597,440.511780 300.267548,419.979919 
	C295.847626,407.004761 291.242493,394.092834 286.752869,381.141266 
	C280.634583,363.491394 274.521820,345.839478 268.453094,328.172516 
	C261.033325,306.572449 253.748642,284.925598 246.236801,263.357727 
	C241.661942,250.222519 237.121490,237.055267 231.900497,224.171951 
	C228.139603,214.891525 221.655823,207.407639 212.149826,203.592392 
	C208.002747,201.927979 203.170441,201.250610 198.668884,201.324020 
	C184.920013,201.548264 171.172043,202.202606 157.439850,202.975876 
	C142.401901,203.822693 127.390297,205.152847 112.349281,205.921341 
	C107.455841,206.171371 102.308853,202.147659 101.517273,197.320908 
	C100.429001,190.684967 99.544830,183.851089 99.938889,177.182709 
	C100.333908,170.497986 106.078804,167.775681 111.816315,166.027267 
	C128.425903,160.965668 145.499756,161.340195 162.482071,162.688354 
	C177.887299,163.911316 193.261169,165.852249 208.542847,168.174301 
	C216.311142,169.354706 222.223251,174.555679 227.171875,180.520889 
	C237.803268,193.336212 242.145630,209.116486 247.474823,224.391815 
	C255.757202,248.132034 263.903442,271.920227 272.003632,295.723358 
	C279.143555,316.704742 286.066833,337.759857 293.222900,358.735657 
	C300.478210,380.002380 307.941925,401.197937 315.239044,422.450562 
	C321.691376,441.242615 328.018066,460.077759 334.441345,478.879852 
	C340.000824,495.153412 345.638519,511.400238 351.176514,527.681091 
	C351.699493,529.218506 352.363159,531.104370 351.924988,532.503967 
	C350.015900,538.602112 347.723480,544.580261 345.066132,552.011780 
	C336.791687,527.865662 329.003571,505.138763 321.144318,482.023773 
z"/>
<path fill="#0A0A0A" opacity="1.000000" stroke="none" 
	d="
M522.520386,512.608887 
	C516.468872,494.682220 510.534973,477.131470 504.627319,459.571930 
	C495.769867,433.244476 487.023529,406.879181 478.047638,380.592224 
	C473.031647,365.902466 467.537231,351.375916 462.537140,336.680969 
	C461.695251,334.206604 461.648163,331.083984 462.320984,328.549500 
	C463.789185,323.018677 465.956940,317.673523 468.226410,311.135986 
	C474.799683,330.296600 480.935059,348.099121 487.014008,365.920929 
	C494.753906,388.612305 502.449158,411.318848 510.161560,434.019592 
	C515.424927,449.511993 520.648376,465.018127 525.958496,480.494476 
	C529.608337,491.132080 533.487732,501.692505 536.999756,512.374451 
	C537.722717,514.573303 537.908447,517.354675 537.237305,519.526184 
	C535.549316,524.987854 533.230042,530.254395 530.875549,536.345032 
	C527.913086,527.930664 525.281433,520.455750 522.520386,512.608887 
z"/>
</svg>