<svg version="1.1" id="Layer_1" xmlns="http://www.w3.org/2000/svg" xmlns:xlink="http://www.w3.org/1999/xlink" x="0px" y="0px"
	 width="100%" viewBox="0 0 1024 768" enable-background="new 0 0 1024 768" xml:space="preserve">
<path fill="#FFFFFF" opacity="1.000000" stroke="none" 
	d="
M1025.000000,193.000000 
	C1025.000000,320.689301 1025.000000,448.378571 1024.538818,576.533936 
	C683.051697,577.000000 342.025848,577.000000 1.000000,577.000000 
	C1.000000,449.310699 1.000000,321.621368 1.461255,193.466034 
	C342.948334,193.000000 683.974182,193.000000 1025.000000,193.000000 
z"/>
<path fill="#000000" opacity="1.000000" stroke="none" 
	d="
M1025.000000,192.538757 
	C683.974182,193.000000 342.948334,193.000000 1.461255,193.000000 
	C1.000000,129.019211 1.000000,65.038422 1.000000,1.028816 
	C342.211670,1.028816 683.423340,1.028816 1025.000000,1.028816 
	C1025.000000,64.692032 1025.000000,128.384766 1025.000000,192.538757 
z"/>
<path fill="#000000" opacity="1.000000" stroke="none" 
	d="
M1.000000,577.461243 
	C342.025848,577.000000 683.051697,577.000000 1024.538818,577.000000 
	C1025.000000,640.980774 1025.000000,704.961548 1025.000000,768.971191 
	C683.788452,768.971191 342.576874,768.971191 1.000000,768.971191 
	C1.000000,705.307983 1.000000,641.615234 1.000000,577.461243 
z"/>
</svg>