<svg version="1.1" id="Layer_1" xmlns="http://www.w3.org/2000/svg" xmlns:xlink="http://www.w3.org/1999/xlink" x="0px" y="0px"
	 width="100%" viewBox="0 0 1024 768" enable-background="new 0 0 1024 768" xml:space="preserve">
<path fill="#000000" opacity="1.000000" stroke="none" 
	d="
M1.000000,257.000000 
	C1.000000,171.690277 1.000000,86.380554 1.000000,1.035416 
	C342.215302,1.035416 683.430603,1.035416 1025.000000,1.035416 
	C1025.000000,86.024582 1025.000000,171.049667 1024.537354,256.537354 
	C683.049805,257.000000 342.024902,257.000000 1.000000,257.000000 
z"/>
<path fill="#FFFFFF" opacity="1.000000" stroke="none" 
	d="
M1.000000,257.462646 
	C342.024902,257.000000 683.049805,257.000000 1024.537354,257.000000 
	C1025.000000,342.024902 1025.000000,427.049805 1024.540283,512.537354 
	C683.053711,513.000000 342.026855,513.000000 1.000000,513.000000 
	C1.000000,427.975098 1.000000,342.950195 1.000000,257.462646 
z"/>
<path fill="#000000" opacity="1.000000" stroke="none" 
	d="
M1.000000,513.459717 
	C342.026855,513.000000 683.053711,513.000000 1024.540283,513.000000 
	C1025.000000,598.310059 1025.000000,683.620056 1025.000000,768.965088 
	C683.783142,768.965088 342.566284,768.965088 1.000000,768.965088 
	C1.000000,683.973450 1.000000,598.946472 1.000000,513.459717 
z"/>
</svg>